<?xml version="1.0" encoding="UTF-8" standalone="no"?>
<!-- Created with Inkscape (http://www.inkscape.org/) -->

<svg
   width="89.943085mm"
   height="22.651814mm"
   viewBox="0 0 89.943085 22.651814"
   version="1.1"
   id="svg1"
   xml:space="preserve"
   xmlns="http://www.w3.org/2000/svg"
   xmlns:svg="http://www.w3.org/2000/svg"><defs
     id="defs1"><linearGradient
       id="paint0_linear"
       x1="6.0001702"
       y1="32.999901"
       x2="235"
       y2="344"
       gradientUnits="userSpaceOnUse"><stop
         stop-color="#41D1FF"
         id="stop2" /><stop
         offset="1"
         stop-color="#BD34FE"
         id="stop3" /></linearGradient><linearGradient
       id="paint1_linear"
       x1="194.651"
       y1="8.8181801"
       x2="236.076"
       y2="292.98901"
       gradientUnits="userSpaceOnUse"><stop
         stop-color="#FFEA83"
         id="stop4" /><stop
         offset="0.0833333"
         stop-color="#FFDD35"
         id="stop5" /><stop
         offset="1"
         stop-color="#FFA800"
         id="stop6" /></linearGradient></defs><g
     id="layer1"
     transform="translate(-14.289407,-21.241611)"><g
       id="g9"><g
         id="g1"
         transform="matrix(0.26458333,0,0,0.26458333,35.839826,-71.67039)"><g
           id="g4545"
           transform="translate(52.242108,265.91421)"><path
             id="path4776"
             d="m 116.25016,132.75002 c 0,20.98724 -17.01268,38 -38.000002,38 -20.986296,0 -37.999999,-17.01371 -37.999999,-38 0,-20.98723 17.012681,-38.000003 37.999999,-38.000003 20.986296,0 38.000002,17.013713 38.000002,38.000003 z"
             style="fill:#0063dc;fill-opacity:1;stroke-width:0.981489" /><path
             id="path4778"
             d="m 206.24988,132.75002 c 0,20.98727 -17.01318,38 -37.99999,38 -20.98682,0 -38,-17.01369 -38,-38 0,-20.98726 17.01318,-38 38,-38 20.98681,0 37.99999,17.01369 37.99999,38 z"
             style="fill:#ff0084;fill-opacity:1;stroke-width:0.974128" /></g></g><g
         style="fill:none"
         id="g2"
         transform="matrix(0.05775781,0,0,0.05775781,13.755507,21.156255)"><path
           d="M 399.641,59.5246 215.643,388.545 c -3.799,6.793 -13.559,6.833 -17.415,0.073 L 10.5817,59.5563 C 6.38087,52.1896 12.6802,43.2665 21.0281,44.7586 L 205.223,77.6824 c 1.175,0.21 2.378,0.208 3.553,-0.0061 L 389.119,44.8058 c 8.32,-1.5164 14.649,7.3376 10.522,14.7188 z"
           fill="url(#paint0_linear)"
           id="path1"
           style="fill:url(#paint0_linear)" /><path
           d="M 292.965,1.5744 156.801,28.2552 c -2.238,0.4385 -3.895,2.3351 -4.03,4.6112 L 144.395,174.33 c -0.197,3.332 2.863,5.918 6.115,5.168 l 37.91,-8.749 c 3.547,-0.818 6.752,2.306 6.023,5.873 l -11.263,55.153 c -0.758,3.712 2.727,6.886 6.352,5.785 l 23.415,-7.114 c 3.63,-1.102 7.118,2.081 6.35,5.796 l -17.899,86.633 c -1.12,5.419 6.088,8.374 9.094,3.728 L 212.5,323.5 323.454,102.072 c 1.858,-3.7075 -1.346,-7.935 -5.418,-7.1492 l -39.022,7.5312 c -3.667,0.707 -6.787,-2.708 -5.752,-6.2957 L 298.731,7.86689 c 1.036,-3.59375 -2.095,-7.011709 -5.766,-6.29249 z"
           fill="url(#paint1_linear)"
           id="path2"
           style="fill:url(#paint1_linear)" /></g><text
         xml:space="preserve"
         style="font-size:20.0654px;fill:#ffffff;fill-opacity:1;stroke-width:1.67211"
         x="38.525406"
         y="39.862011"
         id="text2"
         transform="scale(0.99528274,1.0047396)"><tspan
           id="tspan2"
           style="fill:#ffffff;fill-opacity:1;stroke-width:1.67211"
           x="38.525406"
           y="39.862011">+</tspan></text></g></g></svg>
